# xmcd
#
# Track frame offsets:
#	150
#	26121
#	47905
#	67491
#	85723
#	104498
#	122132
#	142455
#	163337
#	182361
#	205624
#	224324
#	243760
#	265016
#	292605
#	300842
#
# Disc length: 4221 seconds
#
# Revision: 1
# Processed by: cddbd v1.5.2PL0 Copyright (c) Steve Scherf et al.
# Submitted via: audiograbber 1.83.01
#
DISCID=e8107b10
DTITLE=Willie Logan - The House Of The Rising Sun Blues (Revisited)
DYEAR=2006
DGENRE=Blues
TTITLE0=The House Of The Rising Sun
TTITLE1=Weekend Man
TTITLE2=Got You On My Mind
TTITLE3=Maydell
TTITLE4=Long As I Can See The Light
TTITLE5=Home
TTITLE6=Watching From Behind (Alternative Ending)
TTITLE7=Losing Hand
TTITLE8=The Road Of Love
TTITLE9=Vivid Imagination
TTITLE10=Oh Darling
TTITLE11=Oh Pretty Woman
TTITLE12=Leave My Little Girl Alone
TTITLE13=The Blame Game
TTITLE14=Natalie
TTITLE15=The House (Slight Return)
EXTD=
EXTT0=
EXTT1=
EXTT2=
EXTT3=
EXTT4=
EXTT5=
EXTT6=
EXTT7=
EXTT8=
EXTT9=
EXTT10=
EXTT11=
EXTT12=
EXTT13=
EXTT14=
EXTT15=
PLAYORDER=
